<mxfile host="app.diagrams.net" modified="2024-04-10T13:01:57.640Z" agent="Mozilla/5.0 (Windows NT 10.0; Win64; x64) AppleWebKit/537.36 (KHTML, like Gecko) Chrome/123.0.0.0 Safari/537.36" etag="YQiCzFfScfv04kGRF_3a" version="24.2.3" type="github">
  <diagram name="PÃ¡gina-1" id="DkrPr5InaJETtzTNmetu">
    <mxGraphModel dx="1687" dy="2037" grid="1" gridSize="10" guides="1" tooltips="1" connect="1" arrows="1" fold="1" page="1" pageScale="1" pageWidth="827" pageHeight="1169" math="0" shadow="0">
      <root>
        <mxCell id="0" />
        <mxCell id="1" parent="0" />
        <mxCell id="0_Ob8wM6RBk-nGS51ORE-1" value="" style="rounded=0;whiteSpace=wrap;html=1;" vertex="1" parent="1">
          <mxGeometry x="40" y="-800" width="1080" height="650" as="geometry" />
        </mxCell>
        <mxCell id="0_Ob8wM6RBk-nGS51ORE-2" value="" style="rounded=0;whiteSpace=wrap;html=1;fillColor=#e1d5e7;strokeColor=#9673a6;" vertex="1" parent="1">
          <mxGeometry x="70" y="-775" width="470" height="595" as="geometry" />
        </mxCell>
        <mxCell id="0_Ob8wM6RBk-nGS51ORE-3" value="" style="rounded=0;whiteSpace=wrap;html=1;fillColor=#fff2cc;strokeColor=#d6b656;" vertex="1" parent="1">
          <mxGeometry x="620" y="-775" width="470" height="595" as="geometry" />
        </mxCell>
        <mxCell id="0_Ob8wM6RBk-nGS51ORE-8" value="&lt;font style=&quot;font-size: 25px;&quot;&gt;us-east-1a&lt;/font&gt;" style="text;html=1;align=center;verticalAlign=middle;whiteSpace=wrap;rounded=0;" vertex="1" parent="1">
          <mxGeometry x="360" y="-760" width="150" height="60" as="geometry" />
        </mxCell>
        <mxCell id="0_Ob8wM6RBk-nGS51ORE-9" value="&lt;font style=&quot;font-size: 25px;&quot;&gt;us-east-1b&lt;/font&gt;" style="text;html=1;align=center;verticalAlign=middle;whiteSpace=wrap;rounded=0;" vertex="1" parent="1">
          <mxGeometry x="910" y="-760" width="150" height="60" as="geometry" />
        </mxCell>
        <mxCell id="0_Ob8wM6RBk-nGS51ORE-25" style="edgeStyle=orthogonalEdgeStyle;rounded=0;orthogonalLoop=1;jettySize=auto;html=1;entryX=0.5;entryY=0;entryDx=0;entryDy=0;strokeColor=default;align=center;verticalAlign=middle;fontFamily=Helvetica;fontSize=11;fontColor=default;labelBackgroundColor=default;endArrow=classic;curved=1;" edge="1" parent="1" source="0_Ob8wM6RBk-nGS51ORE-4" target="0_Ob8wM6RBk-nGS51ORE-18">
          <mxGeometry relative="1" as="geometry">
            <Array as="points">
              <mxPoint x="305" y="-470" />
              <mxPoint x="475" y="-470" />
            </Array>
          </mxGeometry>
        </mxCell>
        <mxCell id="0_Ob8wM6RBk-nGS51ORE-4" value="" style="rounded=0;whiteSpace=wrap;html=1;" vertex="1" parent="1">
          <mxGeometry x="100" y="-660" width="410" height="110" as="geometry" />
        </mxCell>
        <mxCell id="0_Ob8wM6RBk-nGS51ORE-37" style="edgeStyle=orthogonalEdgeStyle;rounded=0;orthogonalLoop=1;jettySize=auto;html=1;strokeColor=default;align=center;verticalAlign=middle;fontFamily=Helvetica;fontSize=11;fontColor=default;labelBackgroundColor=default;endArrow=classic;exitX=0.5;exitY=1;exitDx=0;exitDy=0;curved=1;entryX=0.5;entryY=0;entryDx=0;entryDy=0;" edge="1" parent="1" source="0_Ob8wM6RBk-nGS51ORE-5" target="0_Ob8wM6RBk-nGS51ORE-35">
          <mxGeometry relative="1" as="geometry">
            <mxPoint x="580" y="-150" as="targetPoint" />
          </mxGeometry>
        </mxCell>
        <mxCell id="0_Ob8wM6RBk-nGS51ORE-5" value="" style="rounded=0;whiteSpace=wrap;html=1;fillColor=#f8cecc;strokeColor=#b85450;" vertex="1" parent="1">
          <mxGeometry x="100" y="-380" width="410" height="110" as="geometry" />
        </mxCell>
        <mxCell id="0_Ob8wM6RBk-nGS51ORE-23" style="edgeStyle=orthogonalEdgeStyle;rounded=0;orthogonalLoop=1;jettySize=auto;html=1;entryX=0.5;entryY=0;entryDx=0;entryDy=0;curved=1;" edge="1" parent="1" source="0_Ob8wM6RBk-nGS51ORE-29" target="0_Ob8wM6RBk-nGS51ORE-19">
          <mxGeometry relative="1" as="geometry">
            <Array as="points">
              <mxPoint x="855" y="-480" />
              <mxPoint x="1025" y="-480" />
            </Array>
          </mxGeometry>
        </mxCell>
        <mxCell id="0_Ob8wM6RBk-nGS51ORE-6" value="" style="rounded=0;whiteSpace=wrap;html=1;" vertex="1" parent="1">
          <mxGeometry x="650" y="-660" width="410" height="110" as="geometry" />
        </mxCell>
        <mxCell id="0_Ob8wM6RBk-nGS51ORE-36" style="edgeStyle=orthogonalEdgeStyle;rounded=0;orthogonalLoop=1;jettySize=auto;html=1;strokeColor=default;align=center;verticalAlign=middle;fontFamily=Helvetica;fontSize=11;fontColor=default;labelBackgroundColor=default;endArrow=classic;exitX=0.5;exitY=1;exitDx=0;exitDy=0;curved=1;" edge="1" parent="1" source="0_Ob8wM6RBk-nGS51ORE-7" target="0_Ob8wM6RBk-nGS51ORE-35">
          <mxGeometry relative="1" as="geometry" />
        </mxCell>
        <mxCell id="0_Ob8wM6RBk-nGS51ORE-7" value="" style="rounded=0;whiteSpace=wrap;html=1;fillColor=#f8cecc;strokeColor=#b85450;" vertex="1" parent="1">
          <mxGeometry x="650" y="-380" width="410" height="110" as="geometry" />
        </mxCell>
        <mxCell id="0_Ob8wM6RBk-nGS51ORE-10" value="&lt;font style=&quot;font-size: 25px;&quot;&gt;Private&lt;/font&gt;" style="text;html=1;align=center;verticalAlign=middle;whiteSpace=wrap;rounded=0;" vertex="1" parent="1">
          <mxGeometry x="120" y="-635" width="150" height="60" as="geometry" />
        </mxCell>
        <mxCell id="0_Ob8wM6RBk-nGS51ORE-11" value="&lt;font style=&quot;font-size: 25px;&quot;&gt;Private&lt;/font&gt;" style="text;html=1;align=center;verticalAlign=middle;whiteSpace=wrap;rounded=0;" vertex="1" parent="1">
          <mxGeometry x="660" y="-635" width="150" height="60" as="geometry" />
        </mxCell>
        <mxCell id="0_Ob8wM6RBk-nGS51ORE-12" value="&lt;font style=&quot;font-size: 25px;&quot;&gt;Public&lt;/font&gt;" style="text;html=1;align=center;verticalAlign=middle;whiteSpace=wrap;rounded=0;" vertex="1" parent="1">
          <mxGeometry x="120" y="-355" width="150" height="60" as="geometry" />
        </mxCell>
        <mxCell id="0_Ob8wM6RBk-nGS51ORE-13" value="&lt;font style=&quot;font-size: 25px;&quot;&gt;Public&lt;/font&gt;" style="text;html=1;align=center;verticalAlign=middle;whiteSpace=wrap;rounded=0;" vertex="1" parent="1">
          <mxGeometry x="660" y="-355" width="150" height="60" as="geometry" />
        </mxCell>
        <mxCell id="0_Ob8wM6RBk-nGS51ORE-14" value="&lt;font style=&quot;font-size: 25px;&quot;&gt;/24&lt;/font&gt;" style="text;html=1;align=center;verticalAlign=middle;whiteSpace=wrap;rounded=0;" vertex="1" parent="1">
          <mxGeometry x="360" y="-620" width="70" height="30" as="geometry" />
        </mxCell>
        <mxCell id="0_Ob8wM6RBk-nGS51ORE-15" value="&lt;font style=&quot;font-size: 25px;&quot;&gt;/24&lt;/font&gt;" style="text;html=1;align=center;verticalAlign=middle;whiteSpace=wrap;rounded=0;" vertex="1" parent="1">
          <mxGeometry x="360" y="-340" width="70" height="30" as="geometry" />
        </mxCell>
        <mxCell id="0_Ob8wM6RBk-nGS51ORE-16" value="&lt;font style=&quot;font-size: 25px;&quot;&gt;/24&lt;/font&gt;" style="text;html=1;align=center;verticalAlign=middle;whiteSpace=wrap;rounded=0;" vertex="1" parent="1">
          <mxGeometry x="900" y="-340" width="70" height="30" as="geometry" />
        </mxCell>
        <mxCell id="0_Ob8wM6RBk-nGS51ORE-17" value="&lt;font style=&quot;font-size: 25px;&quot;&gt;/24&lt;/font&gt;" style="text;html=1;align=center;verticalAlign=middle;whiteSpace=wrap;rounded=0;" vertex="1" parent="1">
          <mxGeometry x="900" y="-620" width="70" height="30" as="geometry" />
        </mxCell>
        <mxCell id="0_Ob8wM6RBk-nGS51ORE-39" style="edgeStyle=orthogonalEdgeStyle;rounded=0;orthogonalLoop=1;jettySize=auto;html=1;strokeColor=default;align=center;verticalAlign=middle;fontFamily=Helvetica;fontSize=11;fontColor=default;labelBackgroundColor=default;endArrow=classic;curved=1;entryX=0.5;entryY=0;entryDx=0;entryDy=0;" edge="1" parent="1" source="0_Ob8wM6RBk-nGS51ORE-18" target="0_Ob8wM6RBk-nGS51ORE-35">
          <mxGeometry relative="1" as="geometry">
            <mxPoint x="580" y="-130" as="targetPoint" />
            <Array as="points">
              <mxPoint x="470" y="-180" />
              <mxPoint x="580" y="-180" />
            </Array>
          </mxGeometry>
        </mxCell>
        <mxCell id="0_Ob8wM6RBk-nGS51ORE-18" value="&lt;span style=&quot;font-size: 25px;&quot;&gt;NGW&lt;/span&gt;" style="text;html=1;align=center;verticalAlign=middle;whiteSpace=wrap;rounded=0;" vertex="1" parent="1">
          <mxGeometry x="440" y="-380" width="70" height="30" as="geometry" />
        </mxCell>
        <mxCell id="0_Ob8wM6RBk-nGS51ORE-38" style="edgeStyle=orthogonalEdgeStyle;rounded=0;orthogonalLoop=1;jettySize=auto;html=1;entryX=0.5;entryY=0;entryDx=0;entryDy=0;strokeColor=default;align=center;verticalAlign=middle;fontFamily=Helvetica;fontSize=11;fontColor=default;labelBackgroundColor=default;endArrow=classic;curved=1;" edge="1" parent="1" source="0_Ob8wM6RBk-nGS51ORE-19" target="0_Ob8wM6RBk-nGS51ORE-35">
          <mxGeometry relative="1" as="geometry">
            <Array as="points">
              <mxPoint x="1025" y="-200" />
              <mxPoint x="580" y="-200" />
            </Array>
          </mxGeometry>
        </mxCell>
        <mxCell id="0_Ob8wM6RBk-nGS51ORE-19" value="&lt;span style=&quot;font-size: 25px;&quot;&gt;NGW&lt;/span&gt;" style="text;html=1;align=center;verticalAlign=middle;whiteSpace=wrap;rounded=0;" vertex="1" parent="1">
          <mxGeometry x="990" y="-380" width="70" height="30" as="geometry" />
        </mxCell>
        <mxCell id="0_Ob8wM6RBk-nGS51ORE-28" value="&lt;font style=&quot;font-size: 35px;&quot;&gt;MNG&lt;/font&gt;" style="rounded=0;whiteSpace=wrap;html=1;fontFamily=Helvetica;fontSize=11;fontColor=default;labelBackgroundColor=default;" vertex="1" parent="1">
          <mxGeometry x="1160" y="-680" width="120" height="60" as="geometry" />
        </mxCell>
        <mxCell id="0_Ob8wM6RBk-nGS51ORE-30" style="edgeStyle=orthogonalEdgeStyle;rounded=0;orthogonalLoop=1;jettySize=auto;html=1;entryX=0;entryY=0.5;entryDx=0;entryDy=0;strokeColor=default;align=center;verticalAlign=middle;fontFamily=Helvetica;fontSize=11;fontColor=default;labelBackgroundColor=default;endArrow=classic;curved=1;" edge="1" parent="1" source="0_Ob8wM6RBk-nGS51ORE-29" target="0_Ob8wM6RBk-nGS51ORE-28">
          <mxGeometry relative="1" as="geometry" />
        </mxCell>
        <mxCell id="0_Ob8wM6RBk-nGS51ORE-33" style="edgeStyle=orthogonalEdgeStyle;rounded=0;orthogonalLoop=1;jettySize=auto;html=1;strokeColor=default;align=center;verticalAlign=middle;fontFamily=Helvetica;fontSize=11;fontColor=default;labelBackgroundColor=default;endArrow=classic;curved=1;" edge="1" parent="1" source="0_Ob8wM6RBk-nGS51ORE-31" target="0_Ob8wM6RBk-nGS51ORE-32">
          <mxGeometry relative="1" as="geometry" />
        </mxCell>
        <mxCell id="0_Ob8wM6RBk-nGS51ORE-31" value="" style="rounded=1;whiteSpace=wrap;html=1;fontFamily=Helvetica;fontSize=11;fontColor=default;labelBackgroundColor=default;fillColor=none;strokeColor=#45FF17;" vertex="1" parent="1">
          <mxGeometry x="80" y="-400" width="1000" height="150" as="geometry" />
        </mxCell>
        <mxCell id="0_Ob8wM6RBk-nGS51ORE-32" value="&lt;font style=&quot;font-size: 35px;&quot;&gt;EKS&lt;/font&gt;" style="rounded=0;whiteSpace=wrap;html=1;fontFamily=Helvetica;fontSize=11;fontColor=default;labelBackgroundColor=default;" vertex="1" parent="1">
          <mxGeometry x="1160" y="-380" width="120" height="60" as="geometry" />
        </mxCell>
        <mxCell id="0_Ob8wM6RBk-nGS51ORE-34" value="&lt;font style=&quot;font-size: 25px;&quot;&gt;VPC us-east-1&lt;/font&gt;" style="text;html=1;align=center;verticalAlign=middle;whiteSpace=wrap;rounded=0;" vertex="1" parent="1">
          <mxGeometry x="900" y="-860" width="190" height="60" as="geometry" />
        </mxCell>
        <mxCell id="0_Ob8wM6RBk-nGS51ORE-35" value="&lt;font style=&quot;font-size: 35px;&quot;&gt;IGW&lt;/font&gt;" style="rounded=0;whiteSpace=wrap;html=1;fontFamily=Helvetica;fontSize=11;fontColor=default;labelBackgroundColor=default;" vertex="1" parent="1">
          <mxGeometry x="520" y="-120" width="120" height="60" as="geometry" />
        </mxCell>
        <mxCell id="0_Ob8wM6RBk-nGS51ORE-40" value="" style="edgeStyle=orthogonalEdgeStyle;rounded=0;orthogonalLoop=1;jettySize=auto;html=1;entryX=0.5;entryY=0;entryDx=0;entryDy=0;curved=1;" edge="1" parent="1" source="0_Ob8wM6RBk-nGS51ORE-6" target="0_Ob8wM6RBk-nGS51ORE-29">
          <mxGeometry relative="1" as="geometry">
            <mxPoint x="855" y="-550" as="sourcePoint" />
            <mxPoint x="1025" y="-380" as="targetPoint" />
            <Array as="points" />
          </mxGeometry>
        </mxCell>
        <mxCell id="0_Ob8wM6RBk-nGS51ORE-29" value="" style="rounded=1;whiteSpace=wrap;html=1;fontFamily=Helvetica;fontSize=11;fontColor=default;labelBackgroundColor=default;fillColor=none;strokeColor=#45FF17;" vertex="1" parent="1">
          <mxGeometry x="90" y="-680" width="1000" height="150" as="geometry" />
        </mxCell>
      </root>
    </mxGraphModel>
  </diagram>
</mxfile>
